# xmcd CD database file
#
# Track frame offsets:
#	150
#	1273
#	40578
#	99660
#	147507
#	188813
#	294605
#
# Disc length: 4711 seconds
#
# Revision: 1
# Processed by: cddbd v1.5.2PL0 Copyright (c) Steve Scherf et al.
# Submitted via: CDex 1.51
#
DISCID=5c126507
DTITLE=Brad Mehldau - Brad Mehldau Trio Live 1
DYEAR=2008
DGENRE=Jazz
TTITLE0=Introduction
TTITLE1=Wonderwall
TTITLE2=Ruby's Rub
TTITLE3=O Que Sera
TTITLE4=B-Flat Waltz
TTITLE5=Black Hole Sun
TTITLE6=The Very Thought Of You
EXTD=YEAR: 2008
EXTT0=
EXTT1=
EXTT2=
EXTT3=
EXTT4=
EXTT5=
EXTT6=
PLAYORDER=
